<svg xmlns="http://www.w3.org/2000/svg" xmlns:xlink="http://www.w3.org/1999/xlink" width="200" zoomAndPan="magnify" viewBox="0 0 150 101.999999" height="136" preserveAspectRatio="xMidYMid meet" version="1.0"><defs><clipPath id="ad30e6c4e9"><path d="M 1 82 L 149 82 L 149 101.25 L 1 101.25 Z M 1 82 " clip-rule="nonzero"/></clipPath></defs><rect x="-15" width="180" fill="#ffffff" y="-10.2" height="122.399999" fill-opacity="1"/><path fill="#000000" d="M 139.289062 0.0429688 L 10.710938 0.0429688 C 5.648438 0.0429688 1.527344 4.15625 1.527344 9.210938 C 1.527344 14.265625 5.648438 18.378906 10.710938 18.378906 L 139.289062 18.378906 C 144.351562 18.378906 148.472656 14.265625 148.472656 9.210938 C 148.472656 4.15625 144.351562 0.0429688 139.289062 0.0429688 Z M 139.289062 0.0429688 " fill-opacity="1" fill-rule="nonzero"/><path fill="#000000" d="M 139.289062 41.457031 L 10.710938 41.457031 C 5.648438 41.457031 1.527344 45.570312 1.527344 50.625 C 1.527344 55.679688 5.648438 59.792969 10.710938 59.792969 L 139.289062 59.792969 C 144.351562 59.792969 148.472656 55.679688 148.472656 50.625 C 148.472656 45.570312 144.351562 41.457031 139.289062 41.457031 Z M 139.289062 41.457031 " fill-opacity="1" fill-rule="nonzero"/><g clip-path="url(#ad30e6c4e9)"><path fill="#000000" d="M 139.289062 82.871094 L 10.710938 82.871094 C 5.648438 82.871094 1.527344 86.984375 1.527344 92.039062 C 1.527344 97.09375 5.648438 101.207031 10.710938 101.207031 L 139.289062 101.207031 C 144.351562 101.207031 148.472656 97.09375 148.472656 92.039062 C 148.472656 86.984375 144.351562 82.871094 139.289062 82.871094 Z M 139.289062 82.871094 " fill-opacity="1" fill-rule="nonzero"/></g></svg>
